# xmcd
#
# Track frame offsets: 
#        150
#        16896
#        32049
#        46565
#        59531
#        76233
#        104870
#        118887
#        137620
#        158330
#
# Disc length: 2392 seconds
#
# Revision: 0
# Processed by: cddbd v1.5.2PL0 Copyright (c) Steve Scherf et al.
# Submitted via: ExactAudioCopyFreeDBPlugin 1.0
#
DISCID=7809560a
DTITLE=Robbie Hill and The Blue 62's - Price To Pay
DYEAR=2013
DGENRE=Blues
TTITLE0=Price To Pay
TTITLE1=Morning Light
TTITLE2=Bad Woman
TTITLE3=You Ain't Right
TTITLE4=The Love You're Teaching Me
TTITLE5=Second Chance
TTITLE6=No Place To Hide
TTITLE7=Praise To Helsinki
TTITLE8=Stranger Blues
TTITLE9=Please Come Back To Me
EXTD=
EXTT0=
EXTT1=
EXTT2=
EXTT3=
EXTT4=
EXTT5=
EXTT6=
EXTT7=
EXTT8=
EXTT9=
PLAYORDER=
